<?xml version="1.0" encoding="UTF-8" standalone="no"?>
<!-- Created with Inkscape (http://www.inkscape.org/) -->
<svg
   xmlns:a="http://ns.adobe.com/AdobeSVGViewerExtensions/3.0/"
   xmlns:svg="http://www.w3.org/2000/svg"
   xmlns="http://www.w3.org/2000/svg"
   xmlns:xlink="http://www.w3.org/1999/xlink"
   version="1.0"
   width="256"
   height="256"
   id="svg2">
  <defs
     id="defs4">
    <linearGradient
       x1="-406.5"
       y1="512.5"
       x2="-406.5"
       y2="278.5"
       id="linearGradient2523"
       xlink:href="#XMLID_7_"
       gradientUnits="userSpaceOnUse"
       gradientTransform="matrix(1,0,0,-1,535.5,523.5)" />
    <linearGradient
       x1="-506.4473"
       y1="494.4473"
       x2="-308.55249"
       y2="296.55249"
       id="linearGradient2525"
       xlink:href="#XMLID_8_"
       gradientUnits="userSpaceOnUse"
       gradientTransform="matrix(1,0,0,-1,535.5,523.5)" />
  </defs>
  <g
     id="layer1">
    <g
       id="g2597">
      <g
         id="Layer_1">
    <path
   d="M 44,15.5 C 34.626,15.5 27,23.126 27,32.5 L 27,232.5 C 27,241.874 34.626,249.5 44,249.5 L 220,249.5 C 229.375,249.5 237,241.874 237,232.5 L 237,32.5 C 237,23.126 229.375,15.5 220,15.5 L 44,15.5 z"
   id="path1158"
   style="opacity:0.2" />

    <path
   d="M 42,13.5 C 32.626,13.5 25,21.126 25,30.5 L 25,230.5 C 25,239.874 32.626,247.5 42,247.5 L 218,247.5 C 227.375,247.5 235,239.874 235,230.5 L 235,30.5 C 235,21.126 227.375,13.5 218,13.5 L 42,13.5 z"
   id="path1159"
   style="opacity:0.2" />

    <path
   d="M 40,12.5 C 30.626,12.5 23,20.126 23,29.5 L 23,229.5 C 23,238.874 30.626,246.5 40,246.5 L 216,246.5 C 225.375,246.5 233,238.874 233,229.5 L 233,29.5 C 233,20.126 225.375,12.5 216,12.5 L 40,12.5 z"
   id="path1160"
   style="opacity:0.2" />

    <linearGradient
   x1="-406.5"
   y1="512.5"
   x2="-406.5"
   y2="278.5"
   id="XMLID_7_"
   gradientUnits="userSpaceOnUse"
   gradientTransform="matrix(1,0,0,-1,535.5,523.5)">
      <stop
   id="stop1162"
   style="stop-color:#494949;stop-opacity:1"
   offset="0" />

      <stop
   id="stop1163"
   style="stop-color:#000000;stop-opacity:1"
   offset="1" />

      <a:midPointStop
   id="midPointStop1164"
   style="stop-color:#494949"
   offset="0" />

      <a:midPointStop
   id="midPointStop1165"
   style="stop-color:#494949"
   offset="0.5" />

      <a:midPointStop
   id="midPointStop1166"
   style="stop-color:#000000"
   offset="1" />

    </linearGradient>

    <path
   d="M 41,11 C 31.626,11 24,18.626 24,28 L 24,228 C 24,237.374 31.626,245 41,245 L 217,245 C 226.375,245 234,237.374 234,228 L 234,28 C 234,18.626 226.375,11 217,11 L 41,11 z"
   id="path1167"
   style="fill:url(#linearGradient2523)" />

    <path
   d="M 28,228 C 28,234.627 33.373,240 40,240 L 216,240 C 222.627,240 228,234.627 228,228 L 228,28 C 228,21.373 222.627,16 216,16 L 40,16 C 33.373,16 28,21.373 28,28 L 28,228 z"
   id="path1168"
   style="fill:#ffffff" />

    <linearGradient
   x1="-506.4473"
   y1="494.4473"
   x2="-308.55249"
   y2="296.55249"
   id="XMLID_8_"
   gradientUnits="userSpaceOnUse"
   gradientTransform="matrix(1,0,0,-1,535.5,523.5)">
      <stop
   id="stop1170"
   style="stop-color:#ffffff;stop-opacity:1"
   offset="0" />

      <stop
   id="stop1171"
   style="stop-color:#dadada;stop-opacity:1"
   offset="1" />

      <a:midPointStop
   id="midPointStop1172"
   style="stop-color:#FFFFFF"
   offset="0" />

      <a:midPointStop
   id="midPointStop1173"
   style="stop-color:#FFFFFF"
   offset="0.5" />

      <a:midPointStop
   id="midPointStop1174"
   style="stop-color:#DADADA"
   offset="1" />

    </linearGradient>

    <path
   d="M 40,21 C 36.14,21 33,24.14 33,28 L 33,228 C 33,231.859 36.14,235 40,235 L 216,235 C 219.859,235 223,231.859 223,228 L 223,28 C 223,24.14 219.859,21 216,21 L 40,21 z"
   id="path1175"
   style="fill:url(#linearGradient2525)" />

    <rect
   width="256"
   height="256"
   x="0"
   y="0"
   id="_x3C_Slice_x3E_"
   style="fill:none" />

  </g>
      <g
         id="g2593">
        <path
           d="M 211.75,173.96875 L 211.75,178.03125 L 45.96875,178.03125 L 45.96875,173.96875 L 211.75,173.96875 z M 211.75,78.03125 L 211.75,82.015625 L 45.96875,82.015625 L 45.96875,78.03125 L 211.75,78.03125 z M 211.75,109.98438 L 211.75,113.96875 L 45.96875,113.96875 L 45.96875,109.98438 L 211.75,109.98438 z M 211.75,142.01562 L 211.75,146 L 45.96875,146 L 45.96875,142.01562 L 211.75,142.01562 z M 211.75,206 L 211.75,209.98438 L 45.96875,209.98438 L 45.96875,206 L 211.75,206 z"
           id="path2560"
           style="fill:#000000;fill-opacity:1;stroke:none;stroke-width:1;stroke-linecap:butt;stroke-linejoin:miter;stroke-opacity:1;" />
        <path
           d="M 174.75,174 L 174.75,177.98438 L 94.75,177.98438 L 94.75,46.03125 L 174.75,46.03125 L 174.75,50.015625 L 155.53125,50.015625 C 160.32285,51.94283 164.34629,55.250119 167.60156,59.9375 C 170.8567,64.625109 172.4843,70.484479 172.48438,77.515625 L 172.48438,77.984375 L 174.75,77.984375 L 174.75,81.96875 L 172.17188,81.96875 C 171.75513,86.031338 170.8567,89.533939 169.47656,92.476562 C 168.09628,95.419349 166.39055,97.854243 164.35938,99.78125 C 162.32806,101.70841 160.03639,103.1407 157.48438,104.07812 C 154.93223,105.01569 152.30203,105.48444 149.59375,105.48438 C 147.51037,105.38028 145.63537,105.09382 143.96875,104.625 C 142.30204,104.15632 140.81766,103.55736 139.51562,102.82812 L 135.21875,110.01562 L 174.75,110.01562 L 174.75,114 L 135.375,114 L 139.51562,121.03125 C 144.25516,119.52089 147.90099,118.76568 150.45312,118.76562 C 153.42182,118.76568 156.15619,119.41672 158.65625,120.71875 C 161.15618,122.02089 163.31764,123.73963 165.14062,125.875 C 166.96347,128.01046 168.48691,130.48442 169.71094,133.29688 C 170.93482,136.10941 171.75513,139.00003 172.17188,141.96875 L 174.75,141.96875 L 174.75,146.03125 L 172.48438,146.03125 L 172.48438,146.8125 C 172.4843,153.21877 170.8567,158.89585 167.60156,163.84375 C 164.34629,168.79167 159.95827,172.17709 154.4375,174 L 174.75,174 z M 139.35938,174 C 135.55725,172.95833 132.4583,171.20052 130.0625,168.72656 C 127.66663,166.25261 126.46872,162.98439 126.46875,158.92188 C 126.67705,156.47398 127.54945,154.53387 129.08594,153.10156 C 130.62236,151.66929 132.30205,150.90106 134.125,150.79688 C 136.26038,150.7969 138.17444,151.59117 139.86719,153.17969 C 141.55985,154.76825 142.4062,156.68231 142.40625,158.92188 C 142.4062,159.91147 142.22391,160.78387 141.85938,161.53906 C 141.49475,162.29428 140.89579,163.2448 140.0625,164.39062 C 139.17704,165.38022 138.60412,166.08334 138.34375,166.5 C 138.08329,166.91667 137.84892,167.54167 137.64062,168.375 C 137.64058,169.46875 138.20048,170.27605 139.32031,170.79688 C 140.44006,171.31771 141.91141,171.68229 143.73438,171.89062 C 149.35932,171.78646 153.08328,169.33855 154.90625,164.54688 C 155.84369,162.20314 156.53379,159.53387 156.97656,156.53906 C 157.41921,153.54429 157.64056,150.30211 157.64062,146.8125 L 157.64062,146.03125 L 119.20312,146.03125 L 119.20312,174 L 139.35938,174 z M 119.20312,77.984375 L 157.48438,77.984375 L 157.48438,77.828125 C 157.48431,75.067807 157.43223,72.541768 157.32812,70.25 C 157.2239,67.958439 156.83327,65.58865 156.15625,63.140625 C 155.63536,60.901155 154.789,58.843865 153.61719,56.96875 C 152.44526,55.093869 150.8437,53.84387 148.8125,53.21875 C 147.77078,52.906371 146.79422,52.698038 145.88281,52.59375 C 144.97131,52.489705 144.09891,52.437622 143.26562,52.4375 C 141.75516,52.437622 140.44006,52.750121 139.32031,53.375 C 138.20048,54.00012 137.53642,54.859494 137.32812,55.953125 C 137.53642,56.890742 138.1484,58.023553 139.16406,59.351562 C 140.17964,60.679801 140.94787,61.734487 141.46875,62.515625 C 141.88537,62.932403 142.0937,63.765735 142.09375,65.015625 C 142.0937,67.151149 141.37756,69.026147 139.94531,70.640625 C 138.51298,72.25531 136.62496,73.062601 134.28125,73.0625 C 132.04163,73.062601 130.14059,72.125102 128.57812,70.25 C 127.01559,68.375106 126.18226,66.213649 126.07812,63.765625 C 126.33851,60.432405 127.52341,57.593866 129.63281,55.25 C 131.74215,52.906371 134.25517,51.161581 137.17188,50.015625 L 119.20312,50.015625 L 119.20312,77.984375 z M 157.48438,141.96875 C 157.17181,137.8542 156.52077,134.02608 155.53125,130.48438 C 154.48952,125.90109 151.62494,123.60943 146.9375,123.60938 C 143.18745,123.60943 140.14058,125.43234 137.79688,129.07812 C 136.70308,130.849 135.81767,132.77608 135.14062,134.85938 C 134.4635,136.94275 133.96871,139.20837 133.65625,141.65625 C 132.7708,135.92712 131.10413,130.57556 128.65625,125.60156 C 126.2083,120.62766 123.49997,116.76047 120.53125,114 L 119.20312,114 L 119.20312,141.96875 L 157.48438,141.96875 z M 134.125,82.515625 C 134.95829,89.130293 136.59892,93.739664 139.04688,96.34375 C 141.49475,98.947992 144.12495,100.25007 146.9375,100.25 C 151.62494,100.25007 154.48952,98.114659 155.53125,93.84375 C 156.05202,92.020915 156.45567,90.119876 156.74219,88.140625 C 157.02858,86.161546 157.2239,84.104257 157.32812,81.96875 L 134.125,81.96875 L 119.20312,81.96875 L 119.20312,110.01562 L 120.375,110.01562 C 120.89581,109.59902 121.638,108.85684 122.60156,107.78906 C 123.56508,106.72142 124.61976,105.27611 125.76562,103.45312 C 126.85934,101.42195 127.86195,99.416741 128.77344,97.4375 C 129.68486,95.458412 130.50517,93.401122 131.23438,91.265625 C 132.53642,87.411545 133.49996,84.494881 134.125,82.515625 L 134.125,82.515625 z M 115.0625,50.015625 L 108.34375,50.015625 L 108.34375,77.984375 L 115.0625,77.984375 L 115.0625,50.015625 z M 115.0625,81.96875 L 108.34375,81.96875 L 108.34375,110.01562 L 115.0625,110.01562 L 115.0625,81.96875 z M 115.0625,114 L 108.34375,114 L 108.34375,141.96875 L 115.0625,141.96875 L 115.0625,114 z M 108.34375,146.03125 L 108.34375,174 L 115.0625,174 L 115.0625,146.03125 L 108.34375,146.03125 z"
           id="path2564"
           style="fill:#000000;fill-opacity:1;stroke:none;stroke-width:1;stroke-linecap:butt;stroke-linejoin:miter;stroke-opacity:1;" />
      </g>
    </g>
  </g>
</svg>
